ffmpeg version 3.4.8-0ubuntu0.2 Copyright (c) 2000-2020 the FFmpeg developers
  built with gcc 7 (Ubuntu 7.5.0-3ubuntu1~18.04)
  configuration: --prefix=/usr --extra-version=0ubuntu0.2 --toolchain=hardened --libdir=/usr/lib/x86_64-linux-gnu --incdir=/usr/include/x86_64-linux-gnu --enable-gpl --disable-stripping --enable-avresample --enable-avisynth --enable-gnutls --enable-ladspa --enable-libass --enable-libbluray --enable-libbs2b --enable-libcaca --enable-libcdio --enable-libflite --enable-libfontconfig --enable-libfreetype --enable-libfribidi --enable-libgme --enable-libgsm --enable-libmp3lame --enable-libmysofa --enable-libopenjpeg --enable-libopenmpt --enable-libopus --enable-libpulse --enable-librubberband --enable-librsvg --enable-libshine --enable-libsnappy --enable-libsoxr --enable-libspeex --enable-libssh --enable-libtheora --enable-libtwolame --enable-libvorbis --enable-libvpx --enable-libwavpack --enable-libwebp --enable-libx265 --enable-libxml2 --enable-libxvid --enable-libzmq --enable-libzvbi --enable-omx --enable-openal --enable-opengl --enable-sdl2 --enable-libdc1394 --enable-libdrm --enable-libiec61883 --enable-chromaprint --enable-frei0r --enable-libopencv --enable-libx264 --enable-shared
  libavutil      55. 78.100 / 55. 78.100
  libavcodec     57.107.100 / 57.107.100
  libavformat    57. 83.100 / 57. 83.100
  libavdevice    57. 10.100 / 57. 10.100
  libavfilter     6.107.100 /  6.107.100
  libavresample   3.  7.  0 /  3.  7.  0
  libswscale      4.  8.100 /  4.  8.100
  libswresample   2.  9.100 /  2.  9.100
  libpostproc    54.  7.100 / 54.  7.100
[rawvideo @ 0x55bffb7b4a20] Estimating duration from bitrate, this may be inaccurate
Input #0, rawvideo, from '../../SVC-Encoder-20220109T061506Z-001/SVC-Encoder/Dataset/RollerCoaster/6f_2x2/tile_yuv/f4_t2_480x480.yuv':
  Duration: 00:00:10.00, start: 0.000000, bitrate: 82944 kb/s
    Stream #0:0: Video: rawvideo (I420 / 0x30323449), yuv420p, 480x480, 82944 kb/s, 30 tbr, 30 tbn, 30 tbc
Stream mapping:
  Stream #0:0 -> #0:0 (rawvideo (native) -> h264 (libx264))
Press [q] to stop, [?] for help
[libx264 @ 0x55bffb7c1c60] using cpu capabilities: MMX2 SSE2Fast LZCNT SSSE3 SSE4.2 AVX
[libx264 @ 0x55bffb7c1c60] profile High, level 3.0
Output #0, rawvideo, to 'RollerCoaster_f4_t2_480x480_x264_QP_24.h264':
  Metadata:
    encoder         : Lavf57.83.100
    Stream #0:0: Video: h264 (libx264), yuv420p, 480x480, q=-1--1, 30 fps, 30 tbn, 30 tbc
    Metadata:
      encoder         : Lavc57.107.100 libx264
    Side data:
      cpb: bitrate max/min/avg: 0/0/0 buffer size: 0 vbv_delay: -1
frame=   98 fps=0.0 q=30.0 PSNR=Y:nan U:nan V:nan *:nan size=     184kB time=00:00:01.83 bitrate= 824.0kbits/s speed=3.67x    frame=  157 fps=156 q=30.0 PSNR=Y:nan U:nan V:nan *:nan size=     256kB time=00:00:03.80 bitrate= 551.9kbits/s speed=3.79x    frame=  216 fps=143 q=30.0 PSNR=Y:nan U:nan V:nan *:nan size=     512kB time=00:00:05.76 bitrate= 727.3kbits/s speed=3.81x    frame=  281 fps=139 q=30.0 PSNR=Y:nan U:nan V:nan *:nan size=     512kB time=00:00:07.93 bitrate= 528.7kbits/s speed=3.94x    frame=  300 fps=121 q=30.0 LPSNR=Y:inf U:inf V:inf *:inf size=     910kB time=00:00:09.93 bitrate= 750.7kbits/s speed=3.99x    
video:910kB audio:0kB subtitle:0kB other streams:0kB global headers:0kB muxing overhead: 0.000000%
[libx264 @ 0x55bffb7c1c60] frame I:2     Avg QP:22.30  size: 37431  PSNR Mean Y:42.78 U:47.82 V:49.09 Avg:43.98 Global:43.91
[libx264 @ 0x55bffb7c1c60] frame P:76    Avg QP:24.10  size:  9208  PSNR Mean Y:40.56 U:47.17 V:48.28 Avg:41.91 Global:41.83
[libx264 @ 0x55bffb7c1c60] frame B:222   Avg QP:29.43  size:   709  PSNR Mean Y:39.52 U:46.88 V:48.09 Avg:40.94 Global:40.92
[libx264 @ 0x55bffb7c1c60] consecutive B-frames:  1.3%  0.0%  0.0% 98.7%
[libx264 @ 0x55bffb7c1c60] mb I  I16..4:  5.3% 75.6% 19.1%
[libx264 @ 0x55bffb7c1c60] mb P  I16..4:  0.2%  0.2%  0.0%  P16..4: 35.2% 28.0% 22.8%  0.0%  0.0%    skip:13.5%
[libx264 @ 0x55bffb7c1c60] mb B  I16..4:  0.0%  0.0%  0.0%  B16..8: 35.4%  6.7%  0.5%  direct: 0.5%  skip:56.9%  L0:33.7% L1:47.0% BI:19.3%
[libx264 @ 0x55bffb7c1c60] 8x8 transform intra:72.7% inter:61.5%
[libx264 @ 0x55bffb7c1c60] coded y,uvDC,uvAC intra: 81.4% 84.1% 42.6% inter: 14.1% 8.2% 0.0%
[libx264 @ 0x55bffb7c1c60] i16 v,h,dc,p: 12% 22% 35% 31%
[libx264 @ 0x55bffb7c1c60] i8 v,h,dc,ddl,ddr,vr,hd,vl,hu:  8% 15% 15%  7%  8%  5% 14% 18% 10%
[libx264 @ 0x55bffb7c1c60] i4 v,h,dc,ddl,ddr,vr,hd,vl,hu:  8% 15% 10%  8% 10%  6% 17% 17%  8%
[libx264 @ 0x55bffb7c1c60] i8c dc,h,v,p: 40% 24% 15% 21%
[libx264 @ 0x55bffb7c1c60] Weighted P-Frames: Y:1.3% UV:0.0%
[libx264 @ 0x55bffb7c1c60] ref P L0: 66.2% 17.9% 14.4%  1.4%  0.0%
[libx264 @ 0x55bffb7c1c60] ref B L0: 95.3%  4.4%  0.4%
[libx264 @ 0x55bffb7c1c60] ref B L1: 95.2%  4.8%
[libx264 @ 0x55bffb7c1c60] PSNR Mean Y:39.803 U:46.958 V:48.147 Avg:41.208 Global:41.148 kb/s:745.72
